<svg xmlns="http://www.w3.org/2000/svg" width="430" height="430" style="width:100%;height:100%;transform:translate3d(0,0,0);content-visibility:visible" viewBox="0 0 430 430"><defs><clipPath id="e"><path d="M0 0h430v430H0z"/></clipPath><clipPath id="h"><path d="M0 0h430v430H0z"/></clipPath><clipPath id="f"><path d="M0 0h430v430H0z"/></clipPath><filter id="a" width="100%" height="100%" x="0%" y="0%" filterUnits="objectBoundingBox"><feComponentTransfer in="SourceGraphic"><feFuncA tableValues="1.0 0.0" type="table"/></feComponentTransfer></filter><filter id="c" width="100%" height="100%" x="0%" y="0%" filterUnits="objectBoundingBox"><feComponentTransfer in="SourceGraphic"><feFuncA tableValues="1.0 0.0" type="table"/></feComponentTransfer></filter><mask id="i" mask-type="alpha"><g filter="url(#a)"><path fill="#fff" d="M0 0h430v430H0z" opacity="0"/><use xmlns:ns1="http://www.w3.org/1999/xlink" ns1:href="#b"/></g></mask><mask id="g" mask-type="alpha"><g filter="url(#c)"><path fill="#fff" d="M0 0h430v430H0z" opacity="0"/><use xmlns:ns2="http://www.w3.org/1999/xlink" ns2:href="#d"/></g></mask><g id="b" style="display:none"><path/><path/></g><g id="d" style="display:block"><path fill="#FFF" d="M73.47 293.2c.32-29.05 5.08-74.73 13.73-125.64 14.55-85.68 34.58-153.74 44.74-152.02 10.16 1.73 6.6 72.59-7.95 158.27-4.69 27.58-9.94 53.34-15.25 75.53-4.21 17.59-8.45 32.94-12.48 45.18"/><path fill-opacity="0" stroke="#121331" stroke-linecap="round" stroke-linejoin="round" stroke-width="0" d="M73.47 293.2c.32-29.05 5.08-74.73 13.73-125.64 14.55-85.68 34.58-153.74 44.74-152.02 10.16 1.73 6.6 72.59-7.95 158.27-4.69 27.58-9.94 53.34-15.25 75.53-4.21 17.59-8.45 32.94-12.48 45.18" class="primary"/><path fill="#FFF" d="M114.173 342.406c-5.203 23.616-25.361 35.423-30.091 72.307-26.229-4.895-42.568-55.603-37.753-87.254 3.637-23.907 24.608-39.414 43.343-35.286s29.704 26.617 24.501 50.233"/><path fill-opacity="0" stroke="#08A88A" stroke-linecap="round" stroke-linejoin="round" stroke-width="0" d="M114.173 342.406c-5.203 23.616-25.361 35.423-30.091 72.307-26.229-4.895-42.568-55.603-37.753-87.254 3.637-23.907 24.608-39.414 43.343-35.286s29.704 26.617 24.501 50.233" class="secondary"/><path fill-opacity="0" stroke="#121331" stroke-linecap="round" stroke-linejoin="round" stroke-width="0" d="m76.895 243.429 31.847 5.907" class="primary"/></g></defs><g fill="none" clip-path="url(#e)"><g stroke-linecap="round" stroke-linejoin="round" stroke-width="12.04" clip-path="url(#f)" style="display:block"><g mask="url(#g)" style="display:block"><path stroke="#121331" d="M124.083 334.883c61.866 50.544 159.534 33.358 218.147-38.385s55.975-170.877-5.891-221.421-159.534-33.357-218.147 38.386c-58.168 71.199 31.71 64.112 37.077 102.703 4.298 30.901-96.738 65.162-31.186 118.717" class="primary"/><path stroke="#08A88A" d="M281.144 237.349c13.258 10.832 32.786 8.864 43.618-4.394s8.865-32.786-4.393-43.618-32.787-8.865-43.619 4.393-8.864 32.787 4.394 43.619m-91.928 79.103c15.397 12.579 38.075 10.295 50.654-5.102s10.295-38.075-5.102-50.654-38.075-10.295-50.654 5.102-10.295 38.075 5.102 50.654m75.267-177.768c11.12 9.085 27.498 7.435 36.583-3.685s7.435-27.499-3.685-36.584-27.498-7.435-36.583 3.685-7.435 27.499 3.685 36.584m-94.67 16.519c8.981 7.338 22.21 6.005 29.548-2.976s6.005-22.21-2.976-29.548-22.21-6.005-29.548 2.976-6.005 22.21 2.976 29.548" class="secondary"/></g><g style="display:block"><path stroke="#121331" d="M73.47 293.2c.32-29.05 5.08-74.73 13.73-125.64 14.55-85.68 34.58-153.74 44.74-152.02 10.16 1.73 6.6 72.59-7.95 158.27-4.69 27.58-9.94 53.34-15.25 75.53-4.21 17.59-8.45 32.94-12.48 45.18" class="primary"/><path stroke="#08A88A" d="M114.173 342.406c-5.203 23.616-25.361 35.423-30.091 72.307-26.229-4.895-42.568-55.603-37.753-87.254 3.637-23.907 24.608-39.414 43.343-35.286s29.704 26.617 24.501 50.233" class="secondary"/><path stroke="#121331" d="m76.895 243.429 31.847 5.907" class="primary"/></g></g><g clip-path="url(#h)" style="display:none"><g mask="url(#i)" style="display:none"><path class="primary"/><path class="secondary"/><path class="secondary"/><path class="secondary"/><path class="secondary"/></g><g style="display:none"><path class="primary"/><path class="secondary"/><path class="primary"/></g></g></g></svg>