 <svg  version="1.0" xmlns="http://www.w3.org/2000/svg"  width="300.000000pt" height="67.000000pt" viewBox="0 0 300.000000 67.000000"  preserveAspectRatio="xMidYMid meet">  <g transform="translate(0.000000,67.000000) scale(0.100000,-0.100000)" fill="#ffffff" stroke="none"> <path d="M231 616 c-20 -24 -22 -63 -5 -80 19 -20 33 -20 58 -1 23 17 72 20 81 5 3 -5 2 -10 -3 -10 -18 0 -75 -65 -94 -108 -15 -34 -19 -62 -17 -143 1 -78 -2 -105 -14 -119 -29 -34 -31 -60 -6 -86 22 -24 25 -24 209 -24 171 0 188 2 204 19 15 17 22 35 25 64 1 4 14 7 30 7 47 0 77 32 85 90 6 44 9 50 31 50 13 0 30 7 38 15 19 19 27 9 27 -34 0 -45 32 -98 66 -111 38 -15 87 -12 113 6 22 16 26 16 54 -1 25 -15 53 -19 139 -19 95 0 111 2 137 22 l30 22 35 -21 c57 -34 153 -30 196 7 12 10 19 9 39 -7 30 -25 72 -24 105 2 l26 20 26 -20 c34 -26 74 -27 107 -1 30 24 36 24 56 6 46 -41 165 -37 224 8 l34 26 24 -21 c33 -29 60 -38 123 -40 40 -2 63 4 89 20 l35 21 36 -21 c31 -18 48 -21 112 -17 73 3 77 5 110 41 37 40 43 72 19 103 -9 12 -12 31 -8 52 14 84 -119 131 -219 78 l-44 -23 -29 21 c-23 16 -44 21 -96 21 -59 0 -72 -4 -110 -31 l-43 -31 -44 31 c-37 27 -52 31 -106 31 -51 0 -70 -5 -104 -28 -23 -15 -42 -23 -42 -18 0 17 -67 51 -102 51 -32 0 -35 3 -44 38 -7 28 -18 42 -45 56 -36 19 -36 19 -70 0 -26 -15 -38 -31 -48 -67 -11 -37 -18 -46 -30 -41 -32 13 -110 16 -142 5 -19 -6 -49 -25 -67 -42 -32 -30 -34 -31 -53 -13 -20 18 -20 18 5 31 52 27 57 87 10 118 -27 18 -165 31 -218 21 -43 -8 -76 -42 -92 -92 l-12 -39 -7 32 c-9 39 -39 73 -66 73 -11 0 -35 -7 -54 -14 -32 -14 -43 -28 -59 -80 -4 -13 -10 -15 -19 -9 -20 17 -58 22 -83 13 -15 -6 -34 -6 -50 0 -20 8 -34 6 -57 -5 -41 -21 -43 -20 -67 23 -12 20 -37 48 -55 62 -19 14 -35 29 -35 34 0 14 80 -1 99 -18 16 -15 19 -15 34 2 19 21 22 54 7 83 -10 18 -23 19 -209 19 -159 0 -201 -3 -210 -14z m409 -46 c0 -20 -5 -30 -15 -30 -8 0 -15 9 -15 20 0 19 -7 20 -176 20 -171 0 -176 -1 -171 -20 3 -13 0 -20 -9 -20 -9 0 -14 11 -14 30 l0 30 200 0 200 0 0 -30z m1138 -66 c18 -12 22 -25 22 -66 0 -44 2 -49 18 -43 46 18 90 17 110 -3 35 -35 42 -180 11 -218 -18 -22 -66 -17 -83 8 -11 16 -14 36 -10 73 5 55 -5 81 -30 72 -12 -5 -16 -21 -16 -67 0 -65 -21 -100 -59 -100 -45 0 -51 22 -51 180 0 142 1 150 22 164 12 9 27 16 33 16 6 0 21 -7 33 -16z m-1258 -17 c19 -12 42 -37 53 -55 34 -59 35 -223 1 -257 -34 -34 -94 -8 -94 41 0 21 -4 24 -40 24 -36 0 -40 -3 -40 -24 0 -33 -25 -56 -59 -56 -44 0 -55 22 -59 124 -3 80 -1 96 20 136 45 87 144 118 218 67z m864 1 c8 -13 8 -23 0 -35 -9 -14 -28 -19 -88 -21 l-76 -3 0 -29 c0 -29 0 -29 68 -32 l67 -3 0 -30 0 -30 -68 -3 c-67 -3 -68 -3 -65 -29 3 -26 5 -27 65 -24 73 3 103 -10 103 -44 0 -36 -28 -45 -144 -45 -82 0 -108 3 -120 16 -13 13 -16 42 -16 163 0 103 4 151 12 159 9 9 48 12 132 10 100 -3 121 -6 130 -20z m-366 -50 c3 -46 4 -48 33 -48 27 0 30 -3 27 -27 -2 -22 -9 -29 -30 -31 -25 -3 -28 -7 -28 -43 0 -42 14 -51 36 -21 10 13 15 14 25 5 16 -16 3 -59 -27 -90 -22 -22 -32 -25 -67 -20 -57 8 -77 35 -77 104 0 43 -4 58 -21 71 -22 19 -18 52 7 52 9 0 14 12 14 34 0 42 31 68 75 64 28 -3 30 -6 33 -50z m-268 -39 c8 0 29 3 47 7 26 5 34 2 49 -20 13 -22 15 -32 6 -51 -12 -27 -49 -34 -69 -14 -22 22 -33 -3 -33 -71 0 -58 -3 -71 -19 -80 -62 -33 -91 4 -91 117 0 71 3 86 21 104 16 16 28 19 47 14 15 -3 34 -6 42 -6z m875 -1 c49 -22 46 -97 -6 -118 -42 -18 -64 -3 -65 41 -1 50 -3 53 -18 40 -24 -20 -30 -69 -11 -97 17 -26 35 -28 119 -12 30 5 29 -18 -2 -52 -54 -62 -182 -48 -219 23 -33 65 -11 140 50 171 38 18 116 21 152 4z m562 -4 c45 -22 65 -53 65 -106 1 -54 -14 -83 -55 -108 -59 -36 -165 -19 -201 31 -22 32 -21 117 2 146 40 52 123 68 189 37z m324 -13 c11 -13 19 -36 19 -52 0 -35 -40 -59 -100 -59 -22 0 -40 -4 -40 -10 0 -17 52 -24 94 -12 47 12 63 3 46 -27 -39 -74 -184 -80 -234 -10 -22 32 -21 120 2 148 31 38 73 52 136 48 47 -3 63 -8 77 -26z m228 18 c36 -13 59 -45 43 -61 -7 -7 -24 -4 -52 10 -39 19 -70 20 -70 2 0 -4 27 -17 60 -29 63 -23 83 -46 78 -88 -7 -59 -126 -94 -201 -58 -67 31 -58 77 11 57 22 -7 49 -12 61 -12 36 0 23 19 -21 30 -67 18 -88 36 -88 73 0 40 8 52 45 71 35 19 89 20 134 5z m-2262 -246 c14 -11 8 -13 -37 -13 -49 0 -52 1 -34 14 10 8 20 19 20 25 3 24 5 25 20 6 8 -11 22 -26 31 -32z m-42 -43 c170 0 173 0 179 22 7 30 29 10 24 -23 l-3 -24 -197 -3 -198 -2 0 28 c0 35 14 52 18 23 3 -20 8 -21 177 -21z"/> <path d="M412 418 c-7 -7 -12 -34 -12 -60 l0 -48 40 0 40 0 0 48 c0 50 -12 72 -40 72 -9 0 -21 -5 -28 -12z"/> <path d="M2096 334 c-3 -9 -6 -31 -6 -49 0 -42 9 -65 25 -65 16 0 25 23 25 65 0 42 -9 65 -25 65 -7 0 -16 -7 -19 -16z"/> <path d="M2395 346 c-20 -30 -13 -46 15 -39 13 3 20 14 20 29 0 34 -17 38 -35 10z"/> </g> </svg> 